<?xml version="1.0" encoding="utf-8"?>
<!DOCTYPE svg PUBLIC "-//W3C//DTD SVG 1.0//EN" "http://www.w3.org/TR/2001/REC-SVG-20010904/DTD/svg10.dtd">
<svg version="1.0" xmlns="http://www.w3.org/2000/svg" width="512px" height="512px" viewBox="0 0 512 512" preserveAspectRatio="xMidYMid meet">
 <g fill="#df5b01">
  <path d="M249.5 399.4 c-6.4 -1 -14.3 -3.7 -20 -6.9 -4 -2.2 -15.1 -11.8 -33.3 -28.8 -15.1 -14.1 -27.3 -25.8 -27.3 -26.1 0 -0.4 53.3 -50.4 118.3 -111.3 82.8 -77.3 119.6 -111.1 122.6 -112.5 7.2 -3.2 16 -0.4 20.2 6.4 1.9 3.2 2 5.2 2 69.8 l-0.1 66.5 -60.5 56.5 c-82.4 77 -81.7 76.3 -88.2 79.8 -3.1 1.6 -8.1 3.7 -11 4.6 -5.7 1.6 -17.8 2.7 -22.7 2z"/>
 </g>
 <g fill="#d7b306">
  <path d="M88.3 397 c-2.5 -1.1 -5.1 -3.3 -6.3 -5.2 -2 -3.3 -2 -4.7 -2 -135.1 0 -95.7 0.3 -132.4 1.1 -134 4.8 -9.4 16.1 -12.8 24.7 -7.6 2.1 1.3 36.8 33.2 77.1 70.9 l73.1 68.4 -3.7 3.7 c-23.1 22.5 -148.6 138.5 -151 139.5 -4.4 1.9 -8 1.7 -13 -0.6z"/>
 </g>
 <g fill="#dfca03">
  <path d="M411.8 397.8 c-1.5 -0.7 -16.9 -14.6 -34.3 -30.8 l-31.5 -29.4 2.2 -2.2 c1.3 -1.2 20.5 -19.2 42.8 -39.9 l40.5 -37.8 0.3 65.9 c0.2 62.4 0.1 66 -1.6 68.3 -4.5 6 -12.6 8.6 -18.4 5.9z"/>
 </g>
</svg>